<?xml version="1.0" standalone="no"?>
<!DOCTYPE svg PUBLIC "-//W3C//DTD SVG 20010904//EN"
 "http://www.w3.org/TR/2001/REC-SVG-20010904/DTD/svg10.dtd">
<svg version="1.0" xmlns="http://www.w3.org/2000/svg"
 width="512.000000pt" height="512.000000pt" viewBox="0 0 512.000000 512.000000"
 preserveAspectRatio="xMidYMid meet">
<metadata>
Created by potrace 1.11, written by Peter Selinger 2001-2013
</metadata>
<g transform="translate(0.000000,512.000000) scale(0.100000,-0.100000)"
fill="#000000" stroke="none">
<path d="M543 4903 c-10 -3 -13 -68 -13 -273 0 -231 2 -271 16 -284 19 -19 25
-20 48 -3 18 13 18 30 14 249 l-5 235 66 7 c36 3 148 6 248 6 174 0 183 1 193
21 9 15 8 24 -1 35 -9 12 -58 14 -283 13 -149 0 -277 -3 -283 -6z"/>
<path d="M3891 4852 c-6 -11 -6 -24 0 -35 9 -15 34 -17 259 -17 l250 0 0 -228
c0 -247 4 -267 51 -260 l24 3 0 275 0 275 -287 3 c-267 2 -288 1 -297 -16z"/>
<path d="M1255 4616 c-66 -21 -101 -43 -144 -92 -74 -84 -71 -39 -71 -1051 l0
-903 -175 0 c-114 0 -183 -4 -200 -12 -41 -19 -55 -57 -55 -152 0 -80 2 -88
29 -118 l29 -33 184 -5 183 -5 5 -730 c6 -813 1 -762 76 -845 21 -23 61 -54
88 -68 l51 -27 1340 0 1340 0 51 27 c68 36 130 108 149 171 13 43 15 159 15
758 l0 707 148 4 c155 5 200 16 222 57 5 11 10 63 10 116 0 93 -1 98 -29 126
l-29 29 -161 0 -161 0 0 439 0 438 -87 84 c-49 46 -325 312 -616 591 l-527
508 -813 -1 c-625 0 -821 -3 -852 -13z m1623 -296 c29 -27 29 -80 1 -106 -17
-15 -40 -20 -120 -22 -96 -4 -99 -5 -99 -27 0 -14 -11 -32 -26 -44 -26 -21
-35 -21 -654 -21 -598 0 -629 1 -651 19 -16 13 -23 29 -23 55 0 60 20 70 134
74 91 4 100 6 100 23 0 11 11 31 25 44 l24 25 634 0 c623 0 634 0 655 -20z
m-223 -425 c30 -29 32 -64 6 -96 l-19 -24 -642 0 -642 0 -19 24 c-26 32 -24
67 6 96 l24 25 631 0 631 0 24 -25z m356 -359 c38 -36 73 -59 110 -72 l54 -19
-210 -3 c-115 -1 -520 -1 -898 0 l-689 3 -19 24 c-25 30 -24 76 1 101 20 20
33 20 808 20 l788 0 55 -54z m367 -362 c27 -19 30 -78 5 -106 -15 -17 -60 -18
-1005 -18 -975 0 -988 0 -1008 20 -11 11 -20 33 -20 50 0 17 9 39 20 50 20 20
33 20 1003 20 873 0 985 -2 1005 -16z m427 -429 c38 -37 37 -88 -1 -122 l-25
-23 -1190 0 -1190 0 -24 25 c-41 40 -31 104 20 133 15 8 332 11 1203 12 l1183
0 24 -25z m-1111 -515 c17 -17 8 -74 -15 -92 -20 -17 -65 -18 -654 -18 l-634
0 -20 26 c-24 31 -26 52 -7 79 13 20 26 20 667 17 361 -2 658 -7 663 -12z m-9
-485 c30 -29 32 -64 6 -96 l-19 -24 -636 -3 -636 -2 -25 24 c-34 34 -33 78 1
105 26 21 34 21 656 21 l629 0 24 -25z m587 -312 c25 -22 23 -75 -3 -99 -20
-18 -52 -19 -918 -22 -493 -1 -911 0 -929 3 -58 11 -79 77 -36 119 14 14 113
16 941 16 848 0 928 -1 945 -17z"/>
<path d="M4410 765 c-6 -15 -10 -125 -10 -250 l0 -225 -252 -2 -253 -3 0 -30
0 -30 290 0 290 0 0 280 0 280 -27 3 c-22 3 -30 -2 -38 -23z"/>
<path d="M537 764 c-4 -4 -7 -128 -7 -275 0 -255 1 -269 19 -279 26 -14 526
-14 552 0 21 12 25 40 7 58 -9 9 -80 12 -260 12 l-248 0 -2 243 -3 242 -25 3
c-14 2 -29 0 -33 -4z"/>
</g>
</svg>
